<?xml version="1.0" encoding="UTF-8" standalone="no" ?>
<!DOCTYPE svg PUBLIC "-//W3C//DTD SVG 1.1//EN" "http://www.w3.org/Graphics/SVG/1.1/DTD/svg11.dtd">
<svg xmlns="http://www.w3.org/2000/svg" xmlns:xlink="http://www.w3.org/1999/xlink" version="1.1" width="380" height="240" viewBox="0 0 506.67 320" xml:space="preserve">
<desc>Created with Fabric.js 3.6.3</desc>
<defs>
</defs>
<g transform="matrix(1 0 0 1 243 160)"  >
<g style=""   >
		<g transform="matrix(0.75 0 0 0.75 -192.5 -122.5)"  >
<rect style="stroke: none; stroke-width: 1; stroke-dasharray: none; stroke-linecap: butt; stroke-dashoffset: 0; stroke-linejoin: miter; stroke-miterlimit: 4; fill: rgb(27,27,27); fill-opacity: 0; fill-rule: nonzero; opacity: 1;"  x="-50" y="-50" rx="0" ry="0" width="100" height="100" />
</g>
		<g transform="matrix(0 2.73 -1.7 0 157.12 23.94)"  >
<polygon style="stroke: rgb(0,0,0); stroke-width: 0; stroke-dasharray: none; stroke-linecap: butt; stroke-dashoffset: 0; stroke-linejoin: miter; stroke-miterlimit: 4; fill: rgb(64,213,146); fill-rule: nonzero; opacity: 1;"  points="0,-42.5 50,42.5 -50,42.5 " />
</g>
		<g transform="matrix(0 2.73 -1.7 0 106.9 -23.31)"  >
<polygon style="stroke: rgb(0,0,0); stroke-width: 0; stroke-dasharray: none; stroke-linecap: butt; stroke-dashoffset: 0; stroke-linejoin: miter; stroke-miterlimit: 4; fill: rgb(255,98,40); fill-rule: nonzero; opacity: 1;"  points="0,-42.5 50,42.5 -50,42.5 " />
</g>
		<g transform="matrix(0 2.73 -1.7 0 133.9 2.19)"  >
<polygon style="stroke: rgb(0,0,0); stroke-width: 0; stroke-dasharray: none; stroke-linecap: butt; stroke-dashoffset: 0; stroke-linejoin: miter; stroke-miterlimit: 4; fill: rgb(243,243,243); fill-rule: nonzero; opacity: 1;"  points="0,-42.5 50,42.5 -50,42.5 " />
</g>
		<g transform="matrix(0 2.73 -1.7 0 -75.38 23.94)"  >
<polygon style="stroke: rgb(0,0,0); stroke-width: 0; stroke-dasharray: none; stroke-linecap: butt; stroke-dashoffset: 0; stroke-linejoin: miter; stroke-miterlimit: 4; fill: rgb(64,213,146); fill-rule: nonzero; opacity: 1;"  points="0,-42.5 50,42.5 -50,42.5 " />
</g>
		<g transform="matrix(0 2.73 -1.7 0 -125.6 -23.31)"  >
<polygon style="stroke: rgb(0,0,0); stroke-width: 0; stroke-dasharray: none; stroke-linecap: butt; stroke-dashoffset: 0; stroke-linejoin: miter; stroke-miterlimit: 4; fill: rgb(255,98,40); fill-rule: nonzero; opacity: 1;"  points="0,-42.5 50,42.5 -50,42.5 " />
</g>
		<g transform="matrix(0 2.73 -1.7 0 -98.6 2.19)"  >
<polygon style="stroke: rgb(0,0,0); stroke-width: 0; stroke-dasharray: none; stroke-linecap: butt; stroke-dashoffset: 0; stroke-linejoin: miter; stroke-miterlimit: 4; fill: rgb(243,243,243); fill-rule: nonzero; opacity: 1;"  points="0,-42.5 50,42.5 -50,42.5 " />
</g>
</g>
</g>
</svg>